<?xml version="1.0" encoding="UTF-8"?>
<svg version="1.1" xmlns="http://www.w3.org/2000/svg" width="340" height="340">
<path d="M0 0 C2.91832303 1.59938124 5.33702612 1.88943439 8.6015625 2.42578125 C24.05650883 9.80354395 34.94937316 25.58573866 40.67578125 41.390625 C45.58802682 59.34277935 41.49696158 79.26760724 32.6015625 95.17578125 C30.77249533 97.98419146 28.83984731 100.30728828 26.4140625 102.61328125 C23.30566275 105.721681 22.28038952 108.41119491 20.6015625 112.42578125 C17.9140625 115.36328125 17.9140625 115.36328125 15.6015625 117.42578125 C15.9521875 117.94140625 16.3028125 118.45703125 16.6640625 118.98828125 C18.20371297 122.99137247 17.42117514 126.52204461 15.7421875 130.421875 C15.40703125 131.12441406 15.071875 131.82695312 14.7265625 132.55078125 C6.71488704 149.94340035 6.8954004 173.09688227 10.8515625 191.55078125 C11.55561615 195.05540389 11.72046741 196.11287359 10.4140625 199.55078125 C8.6015625 201.42578125 8.6015625 201.42578125 5.6015625 202.42578125 C7.61730687 209.61887774 10.12013207 216.50223337 12.9140625 223.42578125 C15.81984797 230.75000171 18.63858805 238.08592504 21.1640625 245.55078125 C21.41518799 246.2778125 21.66631348 247.00484375 21.92504883 247.75390625 C22.88998879 250.66776873 23.60508332 253.14489789 23.56640625 256.23046875 C23.35393558 258.49003056 23.35393558 258.49003056 24.96484375 259.8515625 C25.50496094 260.37105469 26.04507813 260.89054687 26.6015625 261.42578125 C29.34448988 268.13173415 31.65734648 275.16726636 30.6015625 282.42578125 C27.51173582 286.45734352 23.58540823 287.91109464 18.9140625 289.48828125 C17.77759277 289.87234131 17.77759277 289.87234131 16.61816406 290.26416016 C-5.99846889 297.62651622 -31.59711067 298.41754743 -54.3984375 291.42578125 C-56.09419922 290.94044922 -56.09419922 290.94044922 -57.82421875 290.4453125 C-64.76842442 288.2386583 -64.76842442 288.2386583 -67.2421875 285.046875 C-68.3984375 282.42578125 -68.3984375 282.42578125 -68.24609375 280.42578125 C-67.98699219 279.76578125 -67.72789063 279.10578125 -67.4609375 278.42578125 C-67.16445312 277.66007812 -66.86796875 276.894375 -66.5625 276.10546875 C-60.4109898 261.9446097 -60.4109898 261.9446097 -57.3984375 257.42578125 C-56.9389963 255.56094416 -56.9389963 255.56094416 -56.6484375 253.42578125 C-55.69416347 248.19635957 -54.11633656 243.27664841 -52.4609375 238.23828125 C-40.093519 200.23956532 -45.71017761 163.07760498 -60.83203125 126.78515625 C-61.3984375 124.42578125 -61.3984375 124.42578125 -60.68359375 121.421875 C-60.54244141 119.93880859 -60.54244141 119.93880859 -60.3984375 118.42578125 C-62.45365991 115.89270833 -62.45365991 115.89270833 -65.3984375 113.73828125 C-70.39013802 109.63619858 -73.62383935 105.48951348 -76.765625 99.7734375 C-78.25358767 97.2732144 -78.25358767 97.2732144 -80.86328125 96.02734375 C-84.2119932 93.91182465 -85.46318382 91.21666671 -87.0859375 87.73828125 C-87.66730469 86.55878906 -88.24867187 85.37929687 -88.84765625 84.1640625 C-94.49216697 71.25044053 -94.53241917 54.50050524 -90.2734375 41.17578125 C-89.36949961 38.90338184 -88.41470373 36.65021505 -87.3984375 34.42578125 C-86.975625 33.45769531 -86.5528125 32.48960938 -86.1171875 31.4921875 C-78.63099023 16.14983554 -64.79663922 5.09641296 -49.3984375 -1.57421875 C-48.45871094 -1.99058594 -47.51898438 -2.40695313 -46.55078125 -2.8359375 C-32.40415244 -8.14791274 -12.86144807 -8.44163448 0 0 Z M-14.3984375 61.42578125 C-15.18347656 61.76351562 -15.96851563 62.10125 -16.77734375 62.44921875 C-22.2636262 64.77836443 -27.61230822 66.97924893 -33.3984375 68.42578125 C-32.7590625 68.92078125 -32.1196875 69.41578125 -31.4609375 69.92578125 C-27.3270867 73.30035333 -23.36904504 76.86175008 -19.3984375 80.42578125 C-17.00262791 79.5213433 -17.00262791 79.5213433 -16.29296875 76.15234375 C-15.92375106 74.78743792 -15.5634473 73.4200973 -15.2109375 72.05078125 C-14.92573242 71.02210937 -14.92573242 71.02210937 -14.63476562 69.97265625 C-13.74628489 66.6023308 -13.27421702 64.7984427 -14.3984375 61.42578125 Z M-44.3984375 125.42578125 C-43.5940625 126.35390625 -42.7896875 127.28203125 -41.9609375 128.23828125 C-35.81660614 135.41637452 -29.76194069 142.64005081 -24.3984375 150.42578125 C-22.37839199 147.7914529 -20.54417508 145.10703789 -18.7734375 142.30078125 C-14.67738468 136.09495249 -9.64690573 130.67424948 -4.3984375 125.42578125 C-5.6359375 125.57015625 -6.8734375 125.71453125 -8.1484375 125.86328125 C-8.84453125 125.94449219 -9.540625 126.02570313 -10.2578125 126.109375 C-12.35574088 126.36785318 -12.35574088 126.36785318 -14.16015625 126.94921875 C-17.57289972 127.67584127 -20.9874629 127.61633385 -24.4609375 127.61328125 C-25.2130249 127.61392578 -25.9651123 127.61457031 -26.73999023 127.61523438 C-32.78013368 127.5584042 -38.51780779 126.84830939 -44.3984375 125.42578125 Z " fill="#F8F8F8" transform="translate(195.3984375,23.57421875)"/>
<path d="M0 0 C3.57083075 2.8999474 6.55021382 5.97542764 8.625 10.125 C9.45796628 19.08533728 9.1496398 25.87127446 3.625 33.125 C2.88056641 34.15367188 2.88056641 34.15367188 2.12109375 35.203125 C-7.01975683 46.74482549 -21.34777359 52.30150593 -35.375 55.125 C-40.63410188 55.73136553 -45.90880421 55.96663222 -51.1953125 56.20898438 C-59.52438481 56.71924314 -66.78226197 58.20590035 -73.375 63.5625 C-76.97529572 68.17537889 -77.69728602 72.36443118 -78.375 78.125 C-85.68157158 69.1197017 -85.30148221 56.63397897 -84.63378906 45.57714844 C-83.07859625 30.84096297 -74.70905165 17.40503923 -63.71875 7.8046875 C-56.7411447 2.24096538 -49.88033026 -1.23923359 -41.375 -3.875 C-40.653125 -4.11992187 -39.93125 -4.36484375 -39.1875 -4.6171875 C-26.80636648 -8.1477451 -10.62280819 -7.52125835 0 0 Z " fill="#C20E06" transform="translate(194.375,30.875)"/>
<path d="M0 0 C1.69661523 1.64188571 3.35413692 3.30755589 5 5 C5.91265625 5.93585938 5.91265625 5.93585938 6.84375 6.890625 C34.80480907 36.72966565 51.95300443 75.75688812 65 114 C65.36593262 115.0530835 65.36593262 115.0530835 65.73925781 116.12744141 C69.42164557 126.79357614 69.42164557 126.79357614 68 132 C66.12699975 132.65161012 64.2514945 133.29602195 62.375 133.9375 C60.80878906 134.47697266 60.80878906 134.47697266 59.2109375 135.02734375 C41.41922329 140.41680462 20.46684644 137.17702923 3 132 C3.66390088 126.88310542 5.16940845 122.33561047 6.875 117.5 C9.52471363 109.752502 11.57387181 102.07509672 13 94 C13.20496094 92.90816406 13.40992188 91.81632812 13.62109375 90.69140625 C18.39363291 62.2207416 12.90009461 33.0519219 1.87939453 6.69213867 C0 2.19258891 0 2.19258891 0 0 Z " fill="#022F4D" transform="translate(142,149)"/>
<path d="M0 0 C13.01302839 7.93477341 21.23605818 20.70817454 26 35 C27.62700367 55.22427342 25.17068765 72.00869512 12.5 88.375 C7.50413497 93.62065829 2.82350626 96.11861485 -4.375 96.375 C-8.2827517 96.32351447 -9.63444519 96.24888838 -12.9375 94 C-17.38781741 87.52681104 -19.70089152 82.29636038 -19.5 74.375 C-19.48646484 73.59157227 -19.47292969 72.80814453 -19.45898438 72.00097656 C-18.91128437 56.35331476 -12.14218843 44.03255557 -3.1875 31.625 C1.76221028 24.69766575 3.95437216 18.57344323 3 10 C2.14228658 6.75763432 2.14228658 6.75763432 1 4 C0.65023242 2.67088318 0.30903983 1.33917261 0 0 Z " fill="#067445" transform="translate(204,34)"/>
<path d="M0 0 C0 0.66 0 1.32 0 2 C0.71800781 2.23203125 1.43601563 2.4640625 2.17578125 2.703125 C10.89302751 6.70606519 17.32937713 16.36683026 22.56323242 24.13964844 C25.79459306 28.91554584 29.32039644 34.09968151 35 36 C38.05014928 36.24110759 38.05014928 36.24110759 41.25 36.125 C42.86648437 36.09792969 42.86648437 36.09792969 44.515625 36.0703125 C45.33546875 36.04710937 46.1553125 36.02390625 47 36 C42.92298334 39.20531599 38.79749067 41.09093936 34 43 C33.10796875 43.37769531 32.2159375 43.75539062 31.296875 44.14453125 C19.138895 48.6480762 4.00668683 49.36234151 -8.25 44.875 C-10.19127689 43.96755416 -12.11091837 43.01162468 -14 42 C-14.886875 41.56558594 -15.77375 41.13117188 -16.6875 40.68359375 C-26.56036988 35.40100636 -35.25900987 25.8993186 -38.6015625 15.046875 C-39.48925062 10.48659483 -40.13032423 5.4380536 -38.12890625 1.12109375 C-28.31737212 -11.71432303 -12.13418214 -4.9884971 0 0 Z " fill="#063150" transform="translate(160,98)"/>
<path d="M0 0 C1.52367187 0.41572266 1.52367187 0.41572266 3.078125 0.83984375 C11.41150238 3.05936271 19.34323047 4.76295812 28 5 C28.81355957 5.03109863 29.62711914 5.06219727 30.46533203 5.09423828 C42.58827846 5.52145031 53.63783866 5.00876115 65.3828125 1.875 C68.4539759 1.13208358 70.87215224 0.80527018 74 1 C76.9445679 5.99296295 77.63495936 10.33557626 78 16 C50.62093265 24.66946688 21.12644517 29.2949732 -6 17 C-4.13236819 11.27789404 -2.14710968 5.62338249 0 0 Z " fill="#056A3F" transform="translate(141,288)"/>
<path d="M0 0 C0.66 0 1.32 0 2 0 C3.3271261 3.9813783 3.06915913 7.85045227 3 12 C3.61488281 11.566875 4.22976562 11.13375 4.86328125 10.6875 C6.07564453 9.8521875 6.07564453 9.8521875 7.3125 9 C8.51326172 8.1646875 8.51326172 8.1646875 9.73828125 7.3125 C12 6 12 6 15 6 C15 6.66 15 7.32 15 8 C15.7425 7.67 16.485 7.34 17.25 7 C20 6 20 6 24 6 C24 7.98 24 9.96 24 12 C24.66 12.33 25.32 12.66 26 13 C24.50260417 14.20442708 23.00520833 15.40885417 21.5078125 16.61328125 C19.10109863 18.82670981 18.02777702 20.40279416 17.875 23.6875 C17.91625 24.450625 17.9575 25.21375 18 26 C13.9472484 26.98248524 10.16138263 27.08159574 6 27 C6.2165625 27.53109375 6.433125 28.0621875 6.65625 28.609375 C6.9346875 29.31578125 7.213125 30.0221875 7.5 30.75 C7.7784375 31.44609375 8.056875 32.1421875 8.34375 32.859375 C9 35 9 35 9 39 C4.92857143 42 4.92857143 42 2 42 C1.67 38.04 1.34 34.08 1 30 C-6.19853246 34.72709264 -6.19853246 34.72709264 -13 40 C-13 38.68 -13 37.36 -13 36 C-14.37285156 35.76216797 -14.37285156 35.76216797 -15.7734375 35.51953125 C-16.96195313 35.28621094 -18.15046875 35.05289063 -19.375 34.8125 C-21.15003906 34.48185547 -21.15003906 34.48185547 -22.9609375 34.14453125 C-26 33 -26 33 -27.3515625 30.51171875 C-27.56554687 29.68285156 -27.77953125 28.85398437 -28 28 C-28.33 27.34 -28.66 26.68 -29 26 C-23.25 23 -23.25 23 -21 23 C-20.67 21.68 -20.34 20.36 -20 19 C-17.03 18.67 -14.06 18.34 -11 18 C-11.93441535 16.72689688 -12.87267111 15.456612 -13.8125 14.1875 C-14.33457031 13.47980469 -14.85664063 12.77210937 -15.39453125 12.04296875 C-16.83128877 10.21468607 -18.31815763 8.60103312 -20 7 C-16.53058454 7.45822468 -13.32604951 7.89131683 -10 9 C-10 6.69 -10 4.38 -10 2 C-7.61435923 2.57584432 -5.33317216 3.22227595 -3 4 C-2.54625 3.34 -2.0925 2.68 -1.625 2 C-1.08875 1.34 -0.5525 0.68 0 0 Z " fill="#FCF5F5" transform="translate(162,33)"/>
<path d="M0 0 C2.91949792 1.83996264 5.43160787 3.86321574 7 7 C7.78491353 18.09445083 7.52522974 28.33513636 0.0625 37.0625 C-3.5272123 40.8873765 -6.23922061 42.71187246 -11.4375 43.5625 C-15.33143722 42.94766781 -15.67423586 42.72900537 -17.875 39.75 C-21.24652419 34.5252539 -21.6581338 29.08078555 -21 23 C-18.83294491 14.28224694 -14.79618768 7.79618768 -8.5 1.5 C-5.28320445 -0.43007733 -3.69481345 -0.6786392 0 0 Z " fill="#C20F09" transform="translate(212,82)"/>
<path d="M0 0 C0.33 0.66 0.66 1.32 1 2 C0.07421875 4.57421875 0.07421875 4.57421875 -1.3125 7.6875 C-4.77487837 15.49521282 -6.38570581 22.73690387 -7.125 31.1875 C-7.20919189 32.12223145 -7.29338379 33.05696289 -7.38012695 34.02001953 C-8.38924867 45.79617342 -7.89966303 57.24011894 -7 69 C-9.01796445 66.98203555 -9.78650759 65.56449755 -10.953125 63 C-11.32228027 62.19973389 -11.69143555 61.39946777 -12.07177734 60.57495117 C-12.46059082 59.72521729 -12.8494043 58.8754834 -13.25 58 C-16.47135662 51.06533311 -19.91632638 44.47125276 -24 38 C-27.02088167 32.83526682 -27.02088167 32.83526682 -26.9375 29.5 C-22.41154785 17.43079426 -10.111547 7.43028285 0 0 Z " fill="#CF090B" transform="translate(205,146)"/>
<path d="M0 0 C0.66 0.33 1.32 0.66 2 1 C2.34912328 2.72214591 2.65431609 4.45329111 2.9375 6.1875 C3.87838445 10.03111307 4.48498042 11.59773619 7.640625 14.0625 C10.38598258 15.52669071 13.11436837 16.83888846 16 18 C13.53258609 20.64107354 11.42559084 21.79641403 8 23 C8.61512818 28.00890086 9.2717552 33.00632136 10 38 C4.71860321 36.51460715 0.71945899 32.91327696 -3 29 C-3 28.34 -3 27.68 -3 27 C-6.63 27 -10.26 27 -14 27 C-13.67 25.35 -13.34 23.7 -13 22 C-12.48625464 16.55429917 -13.50192486 13.33513975 -16.125 8.69921875 C-17 7 -17 7 -17 5 C-11.06 5.99 -11.06 5.99 -5 7 C-4.34 5.68 -3.68 4.36 -3 3 C-1.375 1.25 -1.375 1.25 0 0 Z " fill="#F6F7F8" transform="translate(148,98)"/>
<path d="M0 0 C2.91949792 1.83996264 5.43160787 3.86321574 7 7 C7.78491353 18.09445083 7.52522974 28.33513636 0.0625 37.0625 C-3.5272123 40.8873765 -6.23922061 42.71187246 -11.4375 43.5625 C-15.33143722 42.94766781 -15.67423586 42.72900537 -17.875 39.75 C-21.24652419 34.5252539 -21.6581338 29.08078555 -21 23 C-18.83294491 14.28224694 -14.79618768 7.79618768 -8.5 1.5 C-5.28320445 -0.43007733 -3.69481345 -0.6786392 0 0 Z M-11 8 C-15.32774313 14.31940347 -17.28954732 19.84910809 -17.3125 27.5 C-17.32925781 28.7890625 -17.34601563 30.078125 -17.36328125 31.40625 C-16.98357311 35.16250256 -16.35329474 37.07637736 -14 40 C-10.59166523 40.59275387 -8.56960215 40.23055325 -5.375 38.9375 C-2.16585499 36.31951329 -0.90639946 33.6813231 1 30 C1.66 29.01 2.32 28.02 3 27 C4.5889818 20.64407278 5.3351941 12.90259586 2.5625 6.875 C0.5455339 4.20896059 0.5455339 4.20896059 -2.75 3.6875 C-6.84778755 4.08151803 -8.14219981 5.06699454 -11 8 Z " fill="#DED7D2" transform="translate(212,82)"/>
<path d="M0 0 C2.3125 0.8125 2.3125 0.8125 3.3125 1.8125 C4.00655807 9.64734786 3.30444673 14.92296925 -1.5625 21.25 C-3.6875 22.8125 -3.6875 22.8125 -6.375 22.625 C-8.6875 21.8125 -8.6875 21.8125 -9.6875 20.8125 C-10.5239052 13.46178504 -9.18629019 7.22751326 -4.8125 1.25 C-2.6875 -0.1875 -2.6875 -0.1875 0 0 Z " fill="#FCF4F4" transform="translate(207.6875,95.1875)"/>
<path d="M0 0 C2.92612619 1.82205543 5.43486248 3.86972495 7 7 C7.07116382 9.37402501 7.08409085 11.75000677 7.0625 14.125 C7.05347656 15.40632813 7.04445312 16.68765625 7.03515625 18.0078125 C7.02355469 18.99523437 7.01195312 19.98265625 7 21 C6.34 21.33 5.68 21.66 5 22 C4.97421875 21.10796875 4.9484375 20.2159375 4.921875 19.296875 C4.86515625 18.12640625 4.8084375 16.9559375 4.75 15.75 C4.70359375 14.58984375 4.6571875 13.4296875 4.609375 12.234375 C3.90404951 8.49072435 3.00603323 7.26963752 0 5 C-2.95691709 4.24984805 -2.95691709 4.24984805 -6 5 C-9.07608494 7.490164 -11.0069705 10.01055533 -13.1875 13.3125 C-13.785625 14.199375 -14.38375 15.08625 -15 16 C-15.66 16 -16.32 16 -17 16 C-16.84207033 9.68281329 -13.32493138 6.19272824 -9 2 C-5.45870816 -0.36086122 -4.17249782 -0.57269578 0 0 Z " fill="#E3E8E3" transform="translate(212,82)"/>
<path d="M0 0 C0.33 0 0.66 0 1 0 C1.12375 0.804375 1.2475 1.60875 1.375 2.4375 C1.58125 3.283125 1.7875 4.12875 2 5 C2.66 5.33 3.32 5.66 4 6 C2.99143645 12.85823213 0.12840441 17.39758578 -5 22 C-7.70879335 23.35439668 -10.00933268 23.06501451 -13 23 C-13 21.02 -13 19.04 -13 17 C-12.05125 17.165 -11.1025 17.33 -10.125 17.5 C-7.19831099 18.0526635 -7.19831099 18.0526635 -5 18 C-1.86154472 11.94726482 -0.56044344 6.76956684 0 0 Z " fill="#C6211C" transform="translate(211,99)"/>
<path d="M0 0 C0.33 0.66 0.66 1.32 1 2 C1.66 2 2.32 2 3 2 C2.855625 3.051875 2.71125 4.10375 2.5625 5.1875 C1.81616844 11.10484308 1.42610508 17.05266101 1 23 C-0.48046875 21.9609375 -0.48046875 21.9609375 -2 20 C-2.36328125 16.6015625 -2.36328125 16.6015625 -2.3125 12.625 C-2.30863281 11.31789063 -2.30476562 10.01078125 -2.30078125 8.6640625 C-2.02465863 5.3003869 -1.45859605 3.01017034 0 0 Z " fill="#C51D17" transform="translate(197,97)"/>
<path d="M0 0 C-1.24518286 3.73554859 -3.22621061 5.22621061 -6 8 C-6.721875 9.093125 -7.44375 10.18625 -8.1875 11.3125 C-8.785625 12.199375 -9.38375 13.08625 -10 14 C-10.66 14 -11.32 14 -12 14 C-11.86039609 8.41584374 -9.37478128 5.57946465 -5.88671875 1.5390625 C-4 0 -4 0 0 0 Z " fill="#ECEDEA" transform="translate(207,84)"/>
<path d="M0 0 C0.66 0.33 1.32 0.66 2 1 C2.25086966 3.68702561 2.47611241 6.37231472 2.6875 9.0625 C2.76033203 9.81466797 2.83316406 10.56683594 2.90820312 11.34179688 C3.30784819 16.77226803 2.50205464 20.15669114 0 25 C-0.99 24.67 -1.98 24.34 -3 24 C-2.690625 23.29875 -2.38125 22.5975 -2.0625 21.875 C-0.13389517 16.65642223 0.11891401 11.65357275 0.0625 6.125 C0.05347656 4.97257812 0.04445312 3.82015625 0.03515625 2.6328125 C0.02355469 1.76398438 0.01195312 0.89515625 0 0 Z " fill="#E5C9C5" transform="translate(215,90)"/>
<path d="M0 0 C0.33 0.99 0.66 1.98 1 3 C-0.14453125 4.7890625 -0.14453125 4.7890625 -1.8125 6.625 C-2.35519531 7.23601562 -2.89789063 7.84703125 -3.45703125 8.4765625 C-5.28844382 10.28479263 -6.36074439 10.96790885 -8.9453125 11.09765625 C-10.96354167 11.06510417 -12.98177083 11.03255208 -15 11 C-15 10.34 -15 9.68 -15 9 C-13.783125 8.773125 -12.56625 8.54625 -11.3125 8.3125 C-7.02156987 7.25685524 -4.88227437 5.39091103 -2 2 C-1.34 1.34 -0.68 0.68 0 0 Z " fill="#F1E8E6" transform="translate(213,113)"/>
<path d="M0 0 C0.66 0 1.32 0 2 0 C2.33 3.96 2.66 7.92 3 12 C0 9 0 9 -0.29296875 6.73828125 C-0.25816406 5.93777344 -0.22335938 5.13726562 -0.1875 4.3125 C-0.16042969 3.50425781 -0.13335937 2.69601563 -0.10546875 1.86328125 C-0.07066406 1.24839844 -0.03585938 0.63351563 0 0 Z " fill="#C00803" transform="translate(195,108)"/>
<path d="M0 0 C0 3 0 3 -1.4609375 4.71875 C-2.40839844 5.60046875 -2.40839844 5.60046875 -3.375 6.5 C-5.65041801 8.63496011 -7.24747563 10.37121344 -9 13 C-8.38297446 7.60102654 -5.92102734 4.54749424 -1.75 1.1875 C-1.1725 0.795625 -0.595 0.40375 0 0 Z " fill="#CE413B" transform="translate(188,45)"/>
<path d="M0 0 C0.33 0.66 0.66 1.32 1 2 C1.66 2 2.32 2 3 2 C2.625 3.9375 2.625 3.9375 2 6 C1.01 6.495 1.01 6.495 0 7 C-0.66 7.99 -1.32 8.98 -2 10 C-1.125 2.25 -1.125 2.25 0 0 Z " fill="#D7DAD2" transform="translate(194,96)"/>
<path d="M0 0 C0.33 0.66 0.66 1.32 1 2 C1.66 2 2.32 2 3 2 C2.67 4.64 2.34 7.28 2 10 C1.67 10 1.34 10 1 10 C1 8.35 1 6.7 1 5 C0.34 4.67 -0.32 4.34 -1 4 C-0.67 2.68 -0.34 1.36 0 0 Z " fill="#C82721" transform="translate(197,97)"/>
<path d="M0 0 C0.66 0.33 1.32 0.66 2 1 C2 2.32 2 3.64 2 5 C3.98 5 5.96 5 8 5 C8 5.33 8 5.66 8 6 C5.69 6 3.38 6 1 6 C-0.0625 4.125 -0.0625 4.125 -1 2 C-0.67 1.34 -0.34 0.68 0 0 Z " fill="#CDD6CD" transform="translate(196,119)"/>
</svg>
