<?xml version="1.0" encoding="UTF-8"?>
<svg version="1.1" xmlns="http://www.w3.org/2000/svg" width="960" height="454">
<path d="M0 0 C1.60132007 3.62963807 2.41757062 6.91226645 2.9296875 10.84082031 C3.16002686 12.56851654 3.16002686 12.56851654 3.39501953 14.33111572 C3.55341309 15.56762878 3.71180664 16.80414185 3.875 18.078125 C4.13479411 20.03603071 4.39459244 21.99393588 4.65463257 23.95180893 C5.01678131 26.6903236 5.37307109 29.42958748 5.72924805 32.16888428 C6.35069098 36.94556136 6.97700992 41.72158644 7.60986328 46.49676514 C7.94565878 49.0350051 8.27755557 51.57376483 8.60498047 54.11309814 C9.39972105 64.92784643 9.39972105 64.92784643 13.25439453 74.67730713 C18.21139795 78.43336381 26.52591067 77.36630754 32.44604492 77.55957031 C33.72145991 77.60187397 34.9968749 77.64417763 36.31093884 77.68776321 C51.41755762 78.15387865 66.52560034 78.10427258 81.63768578 78.06095123 C87.04843654 78.04546053 92.45918019 78.03835139 97.86994934 78.03289795 C99.27073295 78.03147714 99.27073295 78.03147714 100.69981521 78.03002763 C102.6112839 78.02812615 104.52275263 78.02626018 106.43422139 78.02442884 C109.35211857 78.02146646 112.27001462 78.01792756 115.18791103 78.01428604 C146.85825545 77.97683358 178.52846754 78.05662686 210.19854546 78.1838913 C220.32336828 78.22421598 230.44810234 78.25648095 240.57299805 78.27099609 C249.66635368 78.28404319 258.75954373 78.31096739 267.85280591 78.35461307 C272.59005623 78.3769244 277.32710548 78.3929282 282.06441307 78.39188385 C286.45938613 78.39113366 290.85389742 78.4092257 295.24875069 78.44116783 C296.83970403 78.44957588 298.43070968 78.45147995 300.02167511 78.44580269 C324.86608398 78.3689948 343.58573106 86.02235929 361.6875 103.3125 C379.10981287 121.1525552 382.16338983 142.081578 382.12939453 165.94262695 C382.1307516 167.5469517 382.13253325 169.15127613 382.13470459 170.75559998 C382.13924656 175.0951223 382.13750162 179.43462073 382.1343255 183.77414346 C382.13178034 188.33984198 382.13414587 192.90553857 382.13571167 197.47123718 C382.13752912 205.1485531 382.13514031 212.82585938 382.13037109 220.50317383 C382.12495064 229.32970213 382.12667665 238.15620725 382.1321975 246.98273498 C382.13676636 254.59675616 382.13736023 262.21077045 382.13475883 269.82479256 C382.13321391 274.35585323 382.1329521 278.88690309 382.13629532 283.41796303 C382.18314879 357.35081466 382.18314879 357.35081466 364 380 C363.4534375 380.7321875 362.906875 381.464375 362.34375 382.21875 C350.07968949 397.4950359 331.07763449 405.68595747 312 408 C298.13416628 409.39640818 284.19807494 409.14515358 270.27976338 409.13466892 C266.62029178 409.13302186 262.96082573 409.13718819 259.30135596 409.14057809 C252.89881747 409.14571112 246.49628653 409.14715295 240.09374619 409.14612198 C230.57239857 409.14459257 221.05105927 409.14876869 211.52971328 409.1539966 C193.53209474 409.16365294 175.53447907 409.1664802 157.53685825 409.16705366 C143.63531615 409.16751371 129.73377516 409.16957468 115.83223343 409.17275429 C111.82654019 409.17365187 107.82084696 409.17454168 103.81515372 409.17542917 C102.81924721 409.17565021 101.82334071 409.17587126 100.79725522 409.17609901 C72.79539099 409.18225068 44.79352715 409.18619983 16.79166222 409.18575573 C15.20900004 409.18573236 15.20900004 409.18573236 13.59436489 409.18570852 C8.24698521 409.18562542 2.89960554 409.18552638 -2.44777413 409.18542381 C-3.50972869 409.18540387 -4.57168325 409.18538392 -5.66581825 409.18536337 C-7.81334771 409.18532294 -9.96087717 409.18528114 -12.10840663 409.18523798 C-45.5161231 409.18462531 -78.92382941 409.19213139 -112.33154297 409.20581055 C-149.88989667 409.221183 -187.4482437 409.22977608 -225.00660074 409.22884732 C-229.0141801 409.2287727 -233.02175947 409.22872399 -237.02933884 409.22869301 C-238.50942237 409.22867553 -238.50942237 409.22867553 -240.01940658 409.22865769 C-255.87274269 409.22862697 -271.72606996 409.23500267 -287.57940345 409.24362527 C-303.52185277 409.25211681 -319.46428921 409.25307995 -335.40673955 409.24651595 C-344.86721913 409.24283041 -354.32765948 409.2446228 -363.78813487 409.25445829 C-370.12049725 409.26048318 -376.45283139 409.25913512 -382.78519251 409.25198779 C-386.38448212 409.24812737 -389.98369612 409.24726893 -393.58298023 409.25544515 C-426.77311016 409.32573816 -456.77519209 408.57988054 -482.31640625 384.84765625 C-508.58872713 357.23858323 -504.16201447 316.05650969 -504.16725707 280.91293383 C-504.16797479 278.20374763 -504.17012233 275.49456629 -504.17275429 272.78538132 C-504.1819537 263.30271846 -504.18609521 253.82006951 -504.18530273 244.33740234 C-504.18470047 235.54402174 -504.19529538 226.75070217 -504.2110464 217.95733702 C-504.2241642 210.35932272 -504.229485 202.76132831 -504.22884732 195.16330278 C-504.22859398 190.64599273 -504.23135524 186.12873735 -504.24202538 181.61143875 C-504.25178067 177.36768493 -504.25173523 173.12403733 -504.24450874 168.88027954 C-504.24347272 167.33486143 -504.24576642 165.78943641 -504.2518692 164.24403 C-504.33747588 141.04264009 -500.42862148 120.91606715 -483.85546875 103.85546875 C-482.90620362 102.9010949 -481.95447514 101.94916328 -481 101 C-480.17113281 100.17113281 -479.34226562 99.34226562 -478.48828125 98.48828125 C-465.04110281 85.7340331 -447.84533132 78.86777245 -429.31251526 78.84178162 C-428.17763525 78.83437518 -428.17763525 78.83437518 -427.01982838 78.82681912 C-424.48791178 78.81149028 -421.95602059 78.80309069 -419.42407227 78.79467773 C-417.59737369 78.78507911 -415.77067727 78.77506247 -413.94398308 78.76466179 C-408.95140833 78.73751494 -403.95882429 78.71649531 -398.96621585 78.6966517 C-393.6479583 78.67460417 -388.32972685 78.64737513 -383.01148987 78.62089539 C-372.74261375 78.57068569 -362.47372017 78.52603925 -352.20481139 78.4830994 C-343.94990116 78.44832874 -335.69501097 78.41030123 -327.44012451 78.37030029 C-282.18944788 78.15142863 -236.93925677 77.93700794 -191.68798041 78.03789353 C-189.36995807 78.04292039 -187.05193535 78.04740592 -184.73391151 78.05168724 C-170.8982733 78.07726009 -157.06289918 78.11004122 -143.22746563 78.19203281 C-138.37455251 78.21828077 -133.52165105 78.23309623 -128.66868401 78.24512672 C-126.47759154 78.25342799 -124.28651121 78.2670986 -122.09549141 78.2867794 C-119.16265369 78.31300233 -116.2303027 78.32103734 -113.29736328 78.32470703 C-112.04392293 78.34323809 -112.04392293 78.34323809 -110.76516056 78.36214352 C-103.89816817 78.338627 -97.37856908 76.9861175 -92.32421875 71.9609375 C-91.7297998 71.38512939 -91.13538086 70.80932129 -90.52294922 70.21606445 C-89.91725098 69.60851318 -89.31155273 69.00096191 -88.6875 68.375 C-87.37354535 67.10293153 -86.05712758 65.83340245 -84.73828125 64.56640625 C-83.78236084 63.64432373 -83.78236084 63.64432373 -82.80712891 62.70361328 C-79.60305349 59.68307312 -76.17871221 56.95523128 -72.7421875 54.20703125 C-69.61520002 51.69029632 -66.55576386 49.10229619 -63.5 46.5 C-59.52015621 43.11283672 -55.50734429 39.779299 -51.4375 36.5 C-46.95504205 32.85678309 -42.70862555 29.01994555 -38.48242188 25.08813477 C-34.38014477 21.29299775 -30.09572019 17.76935558 -25.73828125 14.26953125 C-21.85458954 11.05066551 -18.18179865 7.6187062 -14.5078125 4.1640625 C-9.35384109 -0.28344554 -6.79375895 -1.46532056 0 0 Z " fill="#F1F2F5" transform="translate(531,19)"/>
<path d="M0 0 C0 0.66 0 1.32 0 2 C-0.66 2 -1.32 2 -2 2 C-2.0825 2.5775 -2.165 3.155 -2.25 3.75 C-3.22823175 6.68469525 -4.72541225 7.91496123 -7 10 C-8.11375 11.1446875 -8.11375 11.1446875 -9.25 12.3125 C-17.84414587 20.71132438 -17.84414587 20.71132438 -22.4375 23.45703125 C-26.09874593 25.66159244 -29.23207119 28.41815974 -32.5 31.16015625 C-34.97105859 32.97870093 -37.16527816 33.88396778 -40 35 C-45.24934074 38.67894973 -50.02850357 42.98770261 -54.75 47.3125 C-58.69274775 50.91428686 -62.78020129 54.23512485 -67 57.5 C-72.1074529 61.4546671 -76.99156054 65.55864694 -81.75 69.93359375 C-84.55851945 72.51294582 -87.43862463 75.00372689 -90.32421875 77.49609375 C-92.14627277 79.08340236 -92.14627277 79.08340236 -94.1875 81.375 C-98.05626303 84.84354616 -103.58714096 84.1512777 -108.52926636 84.15821838 C-109.28091346 84.16315601 -110.03256056 84.16809363 -110.80698484 84.17318088 C-113.32818955 84.18853787 -115.8493687 84.19691701 -118.37060547 84.20532227 C-120.18733023 84.21491876 -122.00405281 84.22493528 -123.82077312 84.23533821 C-128.79069258 84.26250922 -133.76062138 84.28351559 -138.73057485 84.3033483 C-144.02303057 84.32538118 -149.31545994 84.35261814 -154.6078949 84.37910461 C-164.83042383 84.42933866 -175.05297037 84.4739783 -185.27553231 84.5169006 C-193.49745407 84.55167356 -201.71935574 84.58970092 -209.94125366 84.62969971 C-254.95657613 84.8482882 -299.97143482 85.06333864 -344.98735905 84.96210647 C-347.28811901 84.95707602 -349.58887934 84.95259147 -351.88964081 84.94831276 C-365.61361849 84.92277919 -379.3373424 84.89036362 -393.06112194 84.80796719 C-397.88499779 84.78158039 -402.70886213 84.76685941 -407.53279305 84.75487328 C-409.69797663 84.74662613 -411.86314876 84.73303638 -414.02825737 84.7132206 C-426.10953062 84.60321743 -437.20594862 85.26336163 -449 88 C-450.66556156 88.33881203 -452.33179366 88.67445968 -454 89 C-454 89.66 -454 90.32 -454 91 C-454.59167969 91.23074219 -455.18335938 91.46148437 -455.79296875 91.69921875 C-460.90350116 93.8084597 -464.20107179 95.88449444 -468 100 C-468.76054687 100.44472656 -469.52109375 100.88945313 -470.3046875 101.34765625 C-483.40029987 109.37583601 -489.9277745 123.04350375 -495 137 C-495.66 137 -496.32 137 -497 137 C-498.22358519 146.57755262 -498.16293121 156.12945876 -498.17700195 165.76586914 C-498.18327658 167.66092043 -498.18992425 169.55597051 -498.19691467 171.45101929 C-498.21783722 177.64572309 -498.22830544 183.84042681 -498.23828125 190.03515625 C-498.24233311 192.17754058 -498.24645016 194.3199248 -498.25063133 196.46230888 C-498.26965644 206.53073801 -498.2838935 216.59915993 -498.2922433 226.66760355 C-498.30200824 238.24749333 -498.3283198 249.8271916 -498.36874419 261.40701395 C-498.39900425 270.38660175 -498.41372148 279.36613493 -498.41702431 288.34577268 C-498.41936327 293.69561416 -498.42817268 299.04525042 -498.45348549 304.3950367 C-498.47694543 309.43406409 -498.48092818 314.47275368 -498.47072411 319.51182175 C-498.47023298 321.34785404 -498.47642634 323.18390402 -498.49028015 325.01988411 C-498.56684229 335.77934939 -497.62685454 345.38421193 -494.76082134 355.77751827 C-494 359 -494 359 -495 361 C-495.66 361 -496.32 361 -497 361 C-507.29347891 336.51551133 -504.16336662 306.99241951 -504.16725707 280.91293383 C-504.16797479 278.20374763 -504.17012233 275.49456629 -504.17275429 272.78538132 C-504.1819537 263.30271846 -504.18609521 253.82006951 -504.18530273 244.33740234 C-504.18470047 235.54402174 -504.19529538 226.75070217 -504.2110464 217.95733702 C-504.2241642 210.35932272 -504.229485 202.76132831 -504.22884732 195.16330278 C-504.22859398 190.64599273 -504.23135524 186.12873735 -504.24202538 181.61143875 C-504.25178067 177.36768493 -504.25173523 173.12403733 -504.24450874 168.88027954 C-504.24347272 167.33486143 -504.24576642 165.78943641 -504.2518692 164.24403 C-504.33747588 141.04264009 -500.42862148 120.91606715 -483.85546875 103.85546875 C-482.90620362 102.9010949 -481.95447514 101.94916328 -481 101 C-480.17113281 100.17113281 -479.34226562 99.34226562 -478.48828125 98.48828125 C-465.04110281 85.7340331 -447.84533132 78.86777245 -429.31251526 78.84178162 C-428.17763525 78.83437518 -428.17763525 78.83437518 -427.01982838 78.82681912 C-424.48791178 78.81149028 -421.95602059 78.80309069 -419.42407227 78.79467773 C-417.59737369 78.78507911 -415.77067727 78.77506247 -413.94398308 78.76466179 C-408.95140833 78.73751494 -403.95882429 78.71649531 -398.96621585 78.6966517 C-393.6479583 78.67460417 -388.32972685 78.64737513 -383.01148987 78.62089539 C-372.74261375 78.57068569 -362.47372017 78.52603925 -352.20481139 78.4830994 C-343.94990116 78.44832874 -335.69501097 78.41030123 -327.44012451 78.37030029 C-282.18944788 78.15142863 -236.93925677 77.93700794 -191.68798041 78.03789353 C-189.36995807 78.04292039 -187.05193535 78.04740592 -184.73391151 78.05168724 C-170.8982733 78.07726009 -157.06289918 78.11004122 -143.22746563 78.19203281 C-138.37455251 78.21828077 -133.52165105 78.23309623 -128.66868401 78.24512672 C-126.47759154 78.25342799 -124.28651121 78.2670986 -122.09549141 78.2867794 C-119.16265369 78.31300233 -116.2303027 78.32103734 -113.29736328 78.32470703 C-112.04392293 78.34323809 -112.04392293 78.34323809 -110.76516056 78.36214352 C-103.89816817 78.338627 -97.37856908 76.9861175 -92.32421875 71.9609375 C-91.7297998 71.38512939 -91.13538086 70.80932129 -90.52294922 70.21606445 C-89.91725098 69.60851318 -89.31155273 69.00096191 -88.6875 68.375 C-87.37354535 67.10293153 -86.05712758 65.83340245 -84.73828125 64.56640625 C-83.78236084 63.64432373 -83.78236084 63.64432373 -82.80712891 62.70361328 C-79.60305349 59.68307312 -76.17871221 56.95523128 -72.7421875 54.20703125 C-69.61520002 51.69029632 -66.55576386 49.10229619 -63.5 46.5 C-59.52015621 43.11283672 -55.50734429 39.779299 -51.4375 36.5 C-46.95504205 32.85678309 -42.70862555 29.01994555 -38.48242188 25.08813477 C-34.38014477 21.29299775 -30.09572019 17.76935558 -25.73828125 14.26953125 C-21.85458954 11.05066551 -18.18179865 7.6187062 -14.5078125 4.1640625 C-9.35384109 -0.28344554 -6.79375895 -1.46532056 0 0 Z " fill="#AAB2BD" transform="translate(531,19)"/>
<path d="M0 0 C11.61010684 0.05132884 23.22009913 0.08528961 34.830302 0.10511047 C44.00680004 0.12181694 53.18316851 0.15366645 62.35957932 0.19695657 C67.76414166 0.22214182 73.16854608 0.24134234 78.57317019 0.24433243 C83.59440097 0.24750215 88.61520579 0.26965026 93.63630342 0.3058883 C95.45785002 0.31589597 97.27944782 0.31937628 99.10101748 0.31535828 C124.70878198 0.2697158 143.85135627 7.27757428 162.610394 25.19551384 C180.03270687 43.03556905 183.08628383 63.96459184 183.05228853 87.8256408 C183.0536456 89.42996554 183.05542725 91.03428997 183.05759859 92.63861382 C183.06214056 96.97813615 183.06039562 101.31763458 183.05721951 105.6571573 C183.05467434 110.22285583 183.05703987 114.78855241 183.05860567 119.35425103 C183.06042312 127.03156694 183.05803431 134.70887322 183.05326509 142.38618767 C183.04784464 151.21271598 183.04957065 160.0392211 183.0550915 168.86574882 C183.05966036 176.47977001 183.06025423 184.09378429 183.05765283 191.70780641 C183.05610791 196.23886708 183.0558461 200.76991694 183.05918932 205.30097687 C183.1040751 276.12888181 183.1040751 276.12888181 167.922894 297.88301384 C166.932894 297.55301384 165.942894 297.22301384 164.922894 296.88301384 C169.922894 286.88301384 169.922894 286.88301384 171.047894 284.75801384 C172.23996962 282.20356609 172.54411937 279.6606945 172.922894 276.88301384 C173.582894 276.88301384 174.242894 276.88301384 174.922894 276.88301384 C174.98347994 276.27973259 175.04406588 275.67645134 175.10648775 275.05488884 C175.19027681 274.25567009 175.27406588 273.45645134 175.360394 272.63301384 C175.44160494 271.84410759 175.52281588 271.05520134 175.60648775 270.24238884 C175.922894 267.88301384 175.922894 267.88301384 176.4334712 266.22394478 C177.13885939 262.85004179 177.07091981 259.50000744 177.07006502 256.06874382 C177.07558005 254.87998646 177.07558005 254.87998646 177.0812065 253.6672138 C177.09222996 251.00834631 177.09608502 248.34951794 177.09989595 245.69063103 C177.10616197 243.78499013 177.11280889 241.87935044 177.11980867 239.97371209 C177.14084751 233.70911299 177.15121576 227.44451366 177.16117525 221.17988884 C177.16522386 219.01954173 177.16934082 216.85919474 177.17352533 214.69884789 C177.19258219 204.54123295 177.2068082 194.38362528 177.2151373 184.2259959 C177.22489057 172.5260455 177.25115801 160.82628525 177.2916382 149.12640178 C177.32188994 140.06966884 177.33661503 131.01299009 177.33991832 121.95620763 C177.34225986 116.55433078 177.35110208 111.15265693 177.37637949 105.75083458 C177.3998219 100.6585404 177.40382902 95.5665805 177.39361811 90.47424614 C177.39312643 88.61683578 177.39933673 86.75940807 177.41317415 84.90204918 C177.48675024 74.4301334 176.73044296 65.06231001 173.78137159 54.98181832 C172.922894 51.88301384 172.922894 51.88301384 172.922894 48.88301384 C172.262894 48.88301384 171.602894 48.88301384 170.922894 48.88301384 C170.14750678 47.53144955 169.37785783 46.176593 168.610394 44.82051384 C167.96650728 43.6893615 167.96650728 43.6893615 167.30961275 42.53535759 C165.922894 39.88301384 165.922894 39.88301384 164.6025815 36.45332634 C162.70221164 32.41393552 160.53810342 29.88092188 157.360394 26.82051384 C156.82736666 26.30174675 156.29433931 25.78297966 155.74515963 25.24849236 C147.63209417 17.55969478 139.80961487 14.16845312 128.922894 11.88301384 C125.24199907 10.90144186 121.90828349 9.87658184 118.41972017 8.34080803 C113.21043926 6.388218 108.229865 6.49203487 102.72367525 6.55830681 C101.61467647 6.55944387 100.50567768 6.56058093 99.36307287 6.56175244 C95.65365895 6.56890144 91.94470523 6.59728639 88.235394 6.62520134 C85.56704608 6.6338584 82.89872679 6.64122014 80.23037386 6.64676201 C74.47945599 6.66076226 68.72865026 6.68456469 62.97779512 6.71464837 C53.86519975 6.76164947 44.75263181 6.78415328 35.63993502 6.80025017 C34.4856719 6.80231246 34.4856719 6.80231246 33.30809033 6.80441642 C29.36632169 6.81136502 25.42455257 6.8179224 21.48278284 6.82421982 C18.26187088 6.82943636 15.04096127 6.83533755 11.82005167 6.84184754 C-21.681884 6.90952995 -55.18262017 6.84378803 -88.68407965 6.65050423 C-90.29921925 6.64118783 -91.91435889 6.63187867 -93.52949858 6.62257683 C-94.32460384 6.6179947 -95.1197091 6.61341256 -95.93890846 6.60869157 C-101.53907569 6.57727852 -107.13923619 6.55461972 -112.73945951 6.53602898 C-119.57699128 6.51330301 -126.41437626 6.48047525 -133.25179046 6.43411165 C-136.74588573 6.41066143 -140.23984222 6.39177896 -143.73401403 6.38543427 C-147.53098414 6.37586369 -151.32739272 6.34796807 -155.12422514 6.31538689 C-156.77844481 6.31753858 -156.77844481 6.31753858 -158.46608305 6.31973374 C-164.70253972 6.24340245 -169.38113147 5.46222678 -175.077106 2.88301384 C-175.077106 2.22301384 -175.077106 1.56301384 -175.077106 0.88301384 C-116.71500097 -0.03078943 -58.36847309 -0.25842066 0 0 Z " fill="#AEB5C1" transform="translate(730.0771059989929,97.11698615550995)"/>
<path d="M0 0 C0.556875 0.226875 1.11375 0.45375 1.6875 0.6875 C0.73875 1.285625 -0.21 1.88375 -1.1875 2.5 C-4.45214197 4.50312526 -4.45214197 4.50312526 -6.3125 7.6875 C-7.97615314 8.69250548 -9.64329206 9.69174771 -11.3125 10.6875 C-22.36305628 20.0429857 -28.39156381 31.14728428 -33.3125 44.6875 C-33.9725 44.6875 -34.6325 44.6875 -35.3125 44.6875 C-36.53608519 54.26505262 -36.47543121 63.81695876 -36.48950195 73.45336914 C-36.49577658 75.34842043 -36.50242425 77.24347051 -36.50941467 79.13851929 C-36.53033722 85.33322309 -36.54080544 91.52792681 -36.55078125 97.72265625 C-36.55483311 99.86504058 -36.55895016 102.0074248 -36.56313133 104.14980888 C-36.58215644 114.21823801 -36.5963935 124.28665993 -36.6047433 134.35510355 C-36.61450824 145.93499333 -36.6408198 157.5146916 -36.68124419 169.09451395 C-36.71150425 178.07410175 -36.72622148 187.05363493 -36.72952431 196.03327268 C-36.73186327 201.38311416 -36.74067268 206.73275042 -36.76598549 212.0825367 C-36.78944543 217.12156409 -36.79342818 222.16025368 -36.78322411 227.19932175 C-36.78273298 229.03535404 -36.78892634 230.87140402 -36.80278015 232.70738411 C-36.87934229 243.46684939 -35.93935454 253.07171193 -33.07332134 263.46501827 C-32.3125 266.6875 -32.3125 266.6875 -33.3125 268.6875 C-33.9725 268.6875 -34.6325 268.6875 -35.3125 268.6875 C-45.63270452 244.13944071 -42.46609708 214.54473289 -42.4468255 188.40284443 C-42.44426214 183.82892614 -42.44664988 179.25500969 -42.44821167 174.68109131 C-42.45001969 167.01916131 -42.44766091 159.35724102 -42.44287109 151.6953125 C-42.43740771 142.85411503 -42.43921163 134.01294056 -42.4446975 125.17174363 C-42.44923994 117.54325103 -42.44987433 109.91476533 -42.44725883 102.28627181 C-42.44570528 97.74569684 -42.4454774 93.20513268 -42.44879532 88.66455841 C-42.45169131 84.40607247 -42.44966665 80.1476162 -42.44390106 75.88913345 C-42.44258374 74.33152185 -42.44295005 72.77390773 -42.44516373 71.21629715 C-42.46384384 56.73413289 -42.46384384 56.73413289 -41.3125 49.6875 C-40.9825 49.6875 -40.6525 49.6875 -40.3125 49.6875 C-39.9825 51.6675 -39.6525 53.6475 -39.3125 55.6875 C-39.13074219 54.92566406 -38.94898438 54.16382813 -38.76171875 53.37890625 C-36.61352296 44.55477894 -34.24787867 35.90046419 -30.3125 27.6875 C-29.6525 27.3575 -28.9925 27.0275 -28.3125 26.6875 C-28.02375 25.93984375 -27.735 25.1921875 -27.4375 24.421875 C-24.3770177 16.98320275 -8.85238802 -1.19626865 0 0 Z " fill="#C6CAD2" transform="translate(69.3125,111.3125)"/>
<path d="M0 0 C0.99 0.33 1.98 0.66 3 1 C3.66 0.67 4.32 0.34 5 0 C7.98822964 10.956842 8.14547389 21.65664325 8.12939453 32.94262695 C8.1307516 34.5469517 8.13253325 36.15127613 8.13470459 37.75559998 C8.13924656 42.0951223 8.13750162 46.43462073 8.1343255 50.77414346 C8.13178034 55.33984198 8.13414587 59.90553857 8.13571167 64.47123718 C8.13752912 72.1485531 8.13514031 79.82585938 8.13037109 87.50317383 C8.12495064 96.32970213 8.12667665 105.15620725 8.1321975 113.98273498 C8.13676636 121.59675616 8.13736023 129.21077045 8.13475883 136.82479256 C8.13321391 141.35585323 8.1329521 145.88690309 8.13629532 150.41796303 C8.1811811 221.24586797 8.1811811 221.24586797 -7 243 C-7.99 242.67 -8.98 242.34 -10 242 C-5 232 -5 232 -3.875 229.875 C-2.68292438 227.32055224 -2.37877463 224.77768066 -2 222 C-1.34 222 -0.68 222 0 222 C0.06058594 221.39671875 0.12117187 220.7934375 0.18359375 220.171875 C0.26738281 219.37265625 0.35117187 218.5734375 0.4375 217.75 C0.51871094 216.96109375 0.59992187 216.1721875 0.68359375 215.359375 C1 213 1 213 1.51141834 211.34387493 C2.21820119 207.95322247 2.14088099 204.58634332 2.13371277 201.1386261 C2.13597833 200.34118223 2.13824388 199.54373836 2.14057809 198.72212952 C2.14691397 196.04691607 2.14608898 193.37175333 2.14526367 190.6965332 C2.14825549 188.77953526 2.15165807 186.86253792 2.15544128 184.94554138 C2.16428487 179.73459312 2.1666196 174.52366127 2.16725707 169.31270623 C2.1682064 164.96154233 2.17188511 160.61038225 2.17542917 156.25921983 C2.18357568 145.99027544 2.18601328 135.72133982 2.18530273 125.45239258 C2.1847024 114.86538896 2.19524491 104.27843636 2.2110464 93.69144565 C2.22413261 84.59915277 2.22948615 75.50687655 2.22884732 66.41457433 C2.22859258 60.98560143 2.23143038 55.55667385 2.24202538 50.12771034 C2.25172409 45.01827131 2.25177334 39.90892072 2.24450874 34.79947853 C2.24346499 32.92785004 2.24581331 31.056216 2.2518692 29.18459702 C2.25962213 26.62172568 2.25492257 24.05915724 2.24723816 21.49629211 C2.25238172 20.7626103 2.25752529 20.02892849 2.26282471 19.27301389 C2.23250056 14.66914087 1.57726942 10.52091272 0.42880803 6.06067723 C0 4 0 4 0 0 Z " fill="#CACFD7" transform="translate(905,152)"/>
<path d="M0 0 C-0.33 0.66 -0.66 1.32 -1 2 C-5.11295889 3.20938022 -9.27748488 3.15224721 -13.52926636 3.15821838 C-14.65673701 3.16562482 -14.65673701 3.16562482 -15.80698484 3.17318088 C-18.32818955 3.18853787 -20.8493687 3.19691701 -23.37060547 3.20532227 C-25.18733023 3.21491876 -27.00405281 3.22493528 -28.82077312 3.23533821 C-33.79069258 3.26250922 -38.76062138 3.28351559 -43.73057485 3.3033483 C-49.02303057 3.32538118 -54.31545994 3.35261814 -59.6078949 3.37910461 C-69.83042383 3.42933866 -80.05297037 3.4739783 -90.27553231 3.5169006 C-98.49745407 3.55167356 -106.71935574 3.58970092 -114.94125366 3.62969971 C-159.95657613 3.8482882 -204.97143482 4.06333864 -249.98735905 3.96210647 C-252.28811901 3.95707602 -254.58887934 3.95259147 -256.88964081 3.94831276 C-270.61361849 3.92277919 -284.3373424 3.89036362 -298.06112194 3.80796719 C-302.88499779 3.78158039 -307.70886213 3.76685941 -312.53279305 3.75487328 C-314.69797663 3.74662613 -316.86314876 3.73303638 -319.02825737 3.7132206 C-331.10953062 3.60321743 -342.20594862 4.26336163 -354 7 C-355.66556156 7.33881203 -357.33179366 7.67445968 -359 8 C-359 8.66 -359 9.32 -359 10 C-360.98 10.33 -362.96 10.66 -365 11 C-363.68 10.34 -362.36 9.68 -361 9 C-361 8.34 -361 7.68 -361 7 C-359.71139947 6.53311575 -358.41883668 6.07717129 -357.125 5.625 C-356.40570313 5.36976562 -355.68640625 5.11453125 -354.9453125 4.8515625 C-345.44110437 2.10366147 -336.1086312 1.59458566 -326.27050781 1.39477539 C-324.72168774 1.3574392 -323.17287627 1.31974431 -321.62407303 1.28171635 C-304.84366505 0.88916205 -288.05999978 0.7781293 -271.2757206 0.69668961 C-266.76464955 0.6740015 -262.25360445 0.64685439 -257.74255371 0.6204834 C-249.06195935 0.57056947 -240.38134675 0.52542628 -231.70071602 0.48234785 C-224.70732873 0.44759434 -217.7139534 0.41095619 -210.72058105 0.37332153 C-140.47998983 -0.00310959 -70.24145067 -0.13092563 0 0 Z " fill="#C4CAD3" transform="translate(436,100)"/>
<path d="M0 0 C0.556875 0.226875 1.11375 0.45375 1.6875 0.6875 C0.73875 1.285625 -0.21 1.88375 -1.1875 2.5 C-4.45214197 4.50312526 -4.45214197 4.50312526 -6.3125 7.6875 C-7.97615314 8.69250548 -9.64329206 9.69174771 -11.3125 10.6875 C-22.36305628 20.0429857 -28.39156381 31.14728428 -33.3125 44.6875 C-33.9725 44.6875 -34.6325 44.6875 -35.3125 44.6875 C-36.53608519 54.26505262 -36.47543121 63.81695876 -36.48950195 73.45336914 C-36.49577658 75.34842043 -36.50242425 77.24347051 -36.50941467 79.13851929 C-36.53033722 85.33322309 -36.54080544 91.52792681 -36.55078125 97.72265625 C-36.55483311 99.86504058 -36.55895016 102.0074248 -36.56313133 104.14980888 C-36.58215644 114.21823801 -36.5963935 124.28665993 -36.6047433 134.35510355 C-36.61450824 145.93499333 -36.6408198 157.5146916 -36.68124419 169.09451395 C-36.71150425 178.07410175 -36.72622148 187.05363493 -36.72952431 196.03327268 C-36.73186327 201.38311416 -36.74067268 206.73275042 -36.76598549 212.0825367 C-36.78944543 217.12156409 -36.79342818 222.16025368 -36.78322411 227.19932175 C-36.78273298 229.03535404 -36.78892634 230.87140402 -36.80278015 232.70738411 C-36.87934229 243.46684939 -35.93935454 253.07171193 -33.07332134 263.46501827 C-32.3125 266.6875 -32.3125 266.6875 -33.3125 268.6875 C-33.9725 268.6875 -34.6325 268.6875 -35.3125 268.6875 C-43.68497816 248.77238206 -42.52877083 225.93010137 -42.3125 204.6875 C-41.6525 204.6875 -40.9925 204.6875 -40.3125 204.6875 C-39.9825 211.2875 -39.6525 217.8875 -39.3125 224.6875 C-39.31107498 222.52839584 -39.30964996 220.36929169 -39.30818176 218.14476013 C-39.29235917 197.76746807 -39.24894697 177.39036656 -39.18040943 157.01318264 C-39.14583341 146.53781774 -39.12041362 136.06258342 -39.11694336 125.5871582 C-39.11389316 116.45119602 -39.09326139 107.31546685 -39.05197543 98.17959458 C-39.03073922 93.34721433 -39.01799627 88.51516456 -39.02634621 83.68273735 C-39.03394614 79.12301814 -39.0178251 74.56396526 -38.98443985 70.00436783 C-38.97627754 68.34169159 -38.97637158 66.67894818 -38.98590279 65.01627922 C-39.04311935 53.92645222 -37.52538203 45.00766445 -33.3125 34.6875 C-33.06031664 34.04569286 -32.80813329 33.40388572 -32.54830801 32.74262989 C-30.55246212 27.80748106 -30.55246212 27.80748106 -28.3125 26.6875 C-28.02375 25.93984375 -27.735 25.1921875 -27.4375 24.421875 C-24.3770177 16.98320275 -8.85238802 -1.19626865 0 0 Z " fill="#D4D9E0" transform="translate(69.3125,111.3125)"/>
<path d="M0 0 C0.33 0 0.66 0 1 0 C1.33 60.06 1.66 120.12 2 182 C2.495 166.655 2.495 166.655 3 151 C3.66 151 4.32 151 5 151 C5.57704466 207.67860854 5.57704466 207.67860854 -10 230 C-10.99 229.67 -11.98 229.34 -13 229 C-8 219 -8 219 -6.875 216.875 C-5.68292438 214.32055224 -5.37877463 211.77768066 -5 209 C-4.34 209 -3.68 209 -3 209 C-2.93941406 208.39671875 -2.87882813 207.7934375 -2.81640625 207.171875 C-2.73261719 206.37265625 -2.64882813 205.5734375 -2.5625 204.75 C-2.48128906 203.96109375 -2.40007813 203.1721875 -2.31640625 202.359375 C-2 200 -2 200 -1.49011326 198.34766006 C-0.7782168 194.93765051 -0.84629868 191.54619357 -0.84178162 188.07806396 C-0.83684364 187.27427 -0.83190566 186.47047604 -0.82681805 185.64232469 C-0.81144706 182.94612218 -0.80308349 180.24994349 -0.79467773 177.55371094 C-0.7850989 175.62210887 -0.77508881 173.6905089 -0.76467896 171.75891113 C-0.73762443 166.51139487 -0.7166178 161.26386961 -0.69667697 156.01632214 C-0.67482082 150.53367151 -0.64743031 145.05104865 -0.62062073 139.56842041 C-0.57068884 129.18460719 -0.52575183 118.80077857 -0.48259836 108.41693521 C-0.43323025 96.59600912 -0.37831053 84.77511087 -0.32291877 72.95421171 C-0.2090911 48.63616712 -0.10225375 24.31809582 0 0 Z " fill="#D5DAE1" transform="translate(908,165)"/>
<path d="M0 0 C35.78015484 -0.09168514 71.56028897 -0.1621044 107.34053722 -0.20426132 C111.57093777 -0.20926376 115.80133808 -0.21444108 120.03173828 -0.21972656 C121.2949588 -0.22130043 121.2949588 -0.22130043 122.58369893 -0.22290608 C136.19466396 -0.24028059 149.80556096 -0.27180188 163.41648573 -0.30861118 C177.39707216 -0.34610305 191.37762313 -0.36825323 205.35825777 -0.37635398 C213.97537113 -0.38182471 222.59229217 -0.39906257 231.20934629 -0.43166587 C237.12959488 -0.45291573 243.04974498 -0.45917654 248.97002888 -0.45400551 C252.37871535 -0.45145982 255.78679947 -0.45741374 259.19547081 -0.4768219 C289.71600945 -0.64199527 289.71600945 -0.64199527 301 5 C301 5.66 301 6.32 301 7 C302.65 7.33 304.3 7.66 306 8 C304.4375 8.6875 304.4375 8.6875 302 9 C300.3897043 8.32904346 298.78282039 7.64685151 297.20703125 6.8984375 C293.45321345 5.37033468 289.51322095 4.56770276 285.57421875 3.6484375 C283 3 283 3 281 2 C279.51139839 1.9097471 278.01876494 1.88244294 276.5274353 1.88647461 C275.10683634 1.88658413 275.10683634 1.88658413 273.65753841 1.88669586 C272.60958882 1.89185966 271.56163923 1.89702347 270.48193359 1.90234375 C269.37383363 1.90378136 268.26573366 1.90521896 267.12405491 1.90670013 C264.68292302 1.91049264 262.24179397 1.91661076 259.80067253 1.92469788 C255.82264669 1.93774865 251.84463397 1.9448454 247.86659241 1.95007324 C242.07950209 1.95824342 236.2924229 1.96910592 230.50534058 1.98168945 C215.00227449 2.01472033 199.49919187 2.02644654 183.99609375 2.03125 C182.79112318 2.03168147 182.79112318 2.03168147 181.56180978 2.03212166 C142.99111063 2.04460001 104.42278126 1.80937911 65.85332584 1.51822662 C63.42705662 1.49992121 61.00078656 1.4817294 58.5745163 1.46356201 C39.04961016 1.31716929 19.52477176 1.1633923 0 1 C0 0.67 0 0.34 0 0 Z " fill="#CCD1D9" transform="translate(563,102)"/>
<path d="M0 0 C0.33 0 0.66 0 1 0 C1.33 20.79 1.66 41.58 2 63 C2.99 62.505 2.99 62.505 4 62 C4.02322081 70.61481669 4.04096462 79.22962019 4.05181217 87.84446049 C4.05701974 91.84513013 4.0640786 95.84577827 4.07543945 99.84643555 C4.08634411 103.71084745 4.09229285 107.57523874 4.09487724 111.43966484 C4.09671787 112.91036745 4.10031207 114.38106899 4.10573006 115.85176277 C4.11304121 117.91951009 4.11398672 119.98717338 4.11352539 122.05493164 C4.115746 123.22963516 4.11796661 124.40433868 4.12025452 125.61463928 C3.99511629 129.13748442 3.55918677 132.52178317 3 136 C2.67 136 2.34 136 2 136 C2 127.09 2 118.18 2 109 C1.34 109 0.68 109 0 109 C0 73.03 0 37.06 0 0 Z " fill="#CACFD7" transform="translate(27,207)"/>
<path d="M0 0 C3.49486209 5.24229313 3.14765767 10.94346083 3.14044189 17.07496643 C3.14489858 18.26946211 3.14489858 18.26946211 3.1494453 19.48808903 C3.15809403 22.14775045 3.15963731 24.80736666 3.16113281 27.46704102 C3.16576378 29.37784419 3.17078882 31.28864644 3.17617798 33.19944763 C3.18927915 38.38574987 3.19574276 43.57203918 3.20018864 48.75835538 C3.20312371 52.00248401 3.20722939 55.24660914 3.21169281 58.49073601 C3.22536319 68.65207768 3.23503148 78.81341131 3.2388947 88.97476155 C3.24337115 100.6831772 3.26090182 112.39147586 3.2898953 124.09985596 C3.31155581 133.16337717 3.32160135 142.22686557 3.32293582 151.29041237 C3.32398093 156.69715403 3.32982582 162.10378566 3.34775543 167.51049995 C3.36431123 172.60195062 3.36635534 177.69320941 3.35761642 182.78467751 C3.35684999 184.64495612 3.36113628 186.50524537 3.37107468 188.36549759 C3.42305319 198.70814691 2.9736929 208.00940812 0 218 C-0.66 218 -1.32 218 -2 218 C-1.896875 218.78375 -1.79375 219.5675 -1.6875 220.375 C-2.13046069 225.51334395 -4.29273676 229.64376733 -7 234 C-7.66 234.33 -8.32 234.66 -9 235 C-7.87960403 231.61187951 -6.73601727 228.23328315 -5.5625 224.86328125 C-5.04152524 223.34640273 -4.52069478 221.82947465 -4 220.3125 C-3.73960937 219.57322266 -3.47921875 218.83394531 -3.2109375 218.07226562 C0.83767162 206.18203229 1.28681522 194.65932699 1.24291992 182.22216797 C1.24399471 180.44519481 1.24593631 178.66822199 1.24867249 176.89125061 C1.25349463 172.0912918 1.24589619 167.29142686 1.23571944 162.4914794 C1.22688531 157.44525873 1.22869749 152.39904055 1.2290802 147.35281372 C1.22814531 138.87451627 1.21948831 130.39625472 1.20581055 121.91796875 C1.19011742 112.15521236 1.18481155 102.39249534 1.1855461 92.62972724 C1.18622523 82.18926489 1.17926059 71.74881744 1.1700995 61.30835962 C1.16798168 58.32292148 1.16726015 55.33748579 1.16686058 52.35204697 C1.1658451 47.63237288 1.15965188 42.91273096 1.14969444 38.19306755 C1.14680934 36.47476461 1.14553581 34.75645796 1.14612198 33.03815269 C1.14846188 21.98899341 0.76798561 11.0230229 0 0 Z " fill="#E3E6ED" transform="translate(905,156)"/>
<path d="M0 0 C0.99 0 1.98 0 3 0 C3 0.66 3 1.32 3 2 C128.235 2.495 128.235 2.495 256 3 C256 3.33 256 3.66 256 4 C197.3053925 4.90218837 138.62870456 5.09656247 79.92961603 4.73327309 C73.99245177 4.69676137 68.05527451 4.66519854 62.11807251 4.63552856 C54.81381368 4.59865922 47.50965296 4.55379103 40.2055074 4.49878311 C36.4305058 4.47037006 32.65554619 4.4447947 28.88047791 4.4270668 C24.75262097 4.40736018 20.62505086 4.37190947 16.49731445 4.3347168 C15.28004071 4.3309884 14.06276697 4.32726 12.80860615 4.32341862 C11.69846244 4.31080714 10.58831873 4.29819567 9.4445343 4.28520203 C8.48322255 4.27837245 7.5219108 4.27154287 6.53146839 4.26450634 C3.90742905 3.99032751 2.25453718 3.33417341 0 2 C0 1.34 0 0.68 0 0 Z " fill="#B8BFCA" transform="translate(555,98)"/>
<path d="M0 0 C1.38448633 3.84579537 0.60623509 7.02610121 0 11 C-0.09228013 13.6478369 -0.14369631 16.26898125 -0.14044189 18.91601562 C-0.14341302 19.68320451 -0.14638414 20.45039339 -0.1494453 21.24083042 C-0.15807457 23.79598154 -0.15963564 26.3510855 -0.16113281 28.90625 C-0.16576519 30.74499103 -0.17079041 32.58373112 -0.17617798 34.42247009 C-0.18926621 39.40844056 -0.1957403 44.39439758 -0.20018864 49.38038254 C-0.20312601 52.50107756 -0.20723213 55.62176897 -0.21169281 58.74246216 C-0.22536024 68.52257424 -0.23502978 78.30267799 -0.2388947 88.08279896 C-0.2433694 99.34179258 -0.26089317 110.60066443 -0.2898953 121.85962105 C-0.31157643 130.58179532 -0.32160246 139.30393549 -0.32293582 148.0261364 C-0.32397953 153.22613083 -0.32979407 158.42601069 -0.34775543 163.62597656 C-0.36434697 168.52456661 -0.36633834 173.42295733 -0.35761642 178.32156563 C-0.35685186 180.10844014 -0.36111102 181.89532587 -0.37107468 183.68217278 C-0.44894238 198.5308953 1.81043819 211.70794871 6 226 C5.34 226 4.68 226 4 226 C3.37222427 224.00086953 2.74792847 222.00064618 2.125 220 C1.77695312 218.88625 1.42890625 217.7725 1.0703125 216.625 C-0.956885 209.7591632 -2.2976723 203.83989069 -2.25396729 196.70230103 C-2.25708727 195.90622857 -2.26020725 195.11015612 -2.26342177 194.28996027 C-2.27134918 191.64326231 -2.26509874 188.996797 -2.25878906 186.35009766 C-2.2615013 184.44398363 -2.26506355 182.53787065 -2.26940918 180.63175964 C-2.27850891 175.46847722 -2.27499855 170.30527493 -2.26865101 165.14199114 C-2.26357705 159.72945475 -2.26828648 154.31692509 -2.27142334 148.90438843 C-2.27505953 139.81385063 -2.27027362 130.72334536 -2.26074219 121.6328125 C-2.24986487 111.1377621 -2.25337938 100.64278946 -2.264395 90.14774096 C-2.27348556 81.12413673 -2.2747443 72.10055585 -2.26951766 63.07694852 C-2.26640685 57.69328054 -2.26596402 52.30964904 -2.27259064 46.92598343 C-2.27838897 41.86162256 -2.27432178 36.7973614 -2.26280212 31.73301125 C-2.26016854 29.87954053 -2.26089826 28.02606136 -2.26532745 26.17259407 C-2.28479416 17.19530163 -2.25610187 8.75588392 0 0 Z " fill="#E3E7ED" transform="translate(34,156)"/>
<path d="M0 0 C-0.99 0.33 -1.98 0.66 -3 1 C-3.68620031 2.32338632 -4.34786461 3.65949948 -5 5 C-9.24406619 10.73522459 -9.24406619 10.73522459 -12.23046875 11.78125 C-16.2205205 13.53709788 -18.89615369 16.3640038 -22 19.375 C-25.88445028 23.09344813 -29.73002496 26.71664798 -34 30 C-34.66 29.67 -35.32 29.34 -36 29 C-29.40235323 22.91916889 -22.79775623 16.8580664 -16 11 C-21.04828638 12.49649015 -24.01477144 15.5446703 -27.6875 19.125 C-33.23835777 24.41820753 -38.89635453 29.34491555 -45 34 C-45.66 33.67 -46.32 33.34 -47 33 C-40.07996631 26.49802876 -33.11801498 20.17495937 -25.703125 14.234375 C-21.82787569 11.03113424 -18.16975426 7.60738087 -14.5078125 4.1640625 C-9.35384109 -0.28344554 -6.79375895 -1.46532056 0 0 Z " fill="#717986" transform="translate(531,19)"/>
<path d="M0 0 C0.99 0.33 1.98 0.66 3 1 C3.66 0.67 4.32 0.34 5 0 C8.93005786 14.41021216 8.09295324 28.3957072 7 43.1875 C6.90328878 44.53447962 6.80693243 45.88148477 6.7109375 47.22851562 C6.47743008 50.48594415 6.24037781 53.7430725 6 57 C5.67 57 5.34 57 5 57 C3.8697068 47.59448238 3.88333914 38.26612478 3.9375 28.8125 C3.94252803 27.27278792 3.94708862 25.73307425 3.95117188 24.19335938 C3.96206736 20.46220572 3.97925918 16.73111346 4 13 C3.34 13 2.68 13 2 13 C1.66127487 11.58461283 1.32925376 10.16762037 1 8.75 C0.814375 7.96109375 0.62875 7.1721875 0.4375 6.359375 C0 4 0 4 0 0 Z " fill="#BFC2CA" transform="translate(905,152)"/>
<path d="M0 0 C2.62414755 2.62414755 2.25298097 3.76981062 2.25878906 7.42773438 C2.26509338 8.56231079 2.27139771 9.69688721 2.27789307 10.86584473 C2.2738446 12.09605347 2.26979614 13.32626221 2.265625 14.59375 C2.26753845 15.85135132 2.2694519 17.10895264 2.27142334 18.40466309 C2.27278649 21.06792875 2.27008006 23.7308293 2.26074219 26.39404297 C2.24934752 29.81071394 2.25590748 33.22707072 2.26788712 36.64373016 C2.27684454 39.89791479 2.27057628 43.15206127 2.265625 46.40625 C2.26967346 47.63645874 2.27372192 48.86666748 2.27789307 50.13415527 C2.27158875 51.26873169 2.26528442 52.40330811 2.25878906 53.57226562 C2.25719788 54.57439087 2.25560669 55.57651611 2.25396729 56.60900879 C2 59 2 59 0 61 C-1.0611791 57.81646269 -1.08692246 55.67458372 -1.02172852 52.33520508 C-1.00163223 51.17422806 -0.98153595 50.01325104 -0.96083069 48.8170929 C-0.93379562 47.56389755 -0.90676056 46.31070221 -0.87890625 45.01953125 C-0.85529526 43.73640549 -0.83168427 42.45327972 -0.80735779 41.13127136 C-0.74458633 37.72321537 -0.67550022 34.31531552 -0.60510254 30.90740967 C-0.5343563 27.4285797 -0.46957701 23.9496392 -0.40429688 20.47070312 C-0.27537406 13.64701529 -0.13978049 6.82347382 0 0 Z " fill="#C3C7CF" transform="translate(910,210)"/>
<path d="M0 0 C3.96 0.33 7.92 0.66 12 1 C12 0.67 12 0.34 12 0 C21.24 0 30.48 0 40 0 C40 0.33 40 0.66 40 1 C31.75 1 23.5 1 15 1 C15.88409109 3.33833387 15.88409109 3.33833387 18.94140625 4.0859375 C23.5590842 5.29198577 28.18731225 5.45160912 32.9375 5.625 C33.81212891 5.66367188 34.68675781 5.70234375 35.58789062 5.7421875 C37.72494631 5.8356107 39.86244294 5.91885398 42 6 C33.02281991 10.78055016 19.7305786 7.83211731 10 6 C6.80321613 4.97903761 3.80341479 3.86408879 1 2 C0.67 1.34 0.34 0.68 0 0 Z " fill="#E0E3E9" transform="translate(540,97)"/>
<path d="M0 0 C0.99 0 1.98 0 3 0 C3.50763865 2.68625454 4.00627197 5.37368383 4.5 8.0625 C4.64308594 8.81466797 4.78617188 9.56683594 4.93359375 10.34179688 C7.0390625 21.921875 7.0390625 21.921875 5 26 C4.92907158 28.2072923 4.91584975 30.41667452 4.9375 32.625 C4.94652344 33.81351563 4.95554687 35.00203125 4.96484375 36.2265625 C4.97644531 37.14179687 4.98804688 38.05703125 5 39 C4.67 39 4.34 39 4 39 C3.31631734 34.94017963 2.65632317 30.87682558 2 26.8125 C1.80921875 25.68134766 1.6184375 24.55019531 1.421875 23.38476562 C0.16785921 15.5247738 -0.23717646 7.9544703 0 0 Z " fill="#D8E0E8" transform="translate(529,21)"/>
<path d="M0 0 C0.33 0 0.66 0 1 0 C1.33 1.98 1.66 3.96 2 6 C2.33 6 2.66 6 3 6 C3.02515393 10.15852493 3.04306897 14.31700684 3.05493164 18.47558594 C3.05988898 19.88347141 3.06665686 21.29135194 3.07543945 22.69921875 C3.133057 32.18916799 2.82393888 41.53817205 2 51 C1.67 51 1.34 51 1 51 C0.71057689 46.64441311 0.42596644 42.28854418 0.14550781 37.93237305 C0.04977375 36.45540208 -0.04719732 34.97851069 -0.14550781 33.50170898 C-1.64695409 10.91107085 -1.64695409 10.91107085 0 0 Z " fill="#C1C4CC" transform="translate(28,161)"/>
<path d="M0 0 C0.99 0.33 1.98 0.66 3 1 C2.34 1 1.68 1 1 1 C0.896875 1.639375 0.79375 2.27875 0.6875 2.9375 C0.460625 3.618125 0.23375 4.29875 0 5 C-0.99 5.33 -1.98 5.66 -3 6 C-2 4 -1 2 0 0 Z M-5 6 C-4.34 6.33 -3.68 6.66 -3 7 C-5.12978603 11.5257953 -8.07329861 13.77484941 -12.0625 16.5703125 C-13.9994403 17.91602001 -13.9994403 17.91602001 -15.4375 19.4921875 C-17.42030745 21.40559669 -19.6337172 22.59141511 -22 24 C-23.792171 25.3683291 -25.56321832 26.7647509 -27.3125 28.1875 C-28.19550781 28.90292969 -29.07851563 29.61835937 -29.98828125 30.35546875 C-30.65214844 30.89816406 -31.31601562 31.44085938 -32 32 C-32.66 31.67 -33.32 31.34 -34 31 C-29.92054353 27.18983349 -25.8321452 23.3897946 -21.73095703 19.60302734 C-20.30243326 18.28008135 -18.88246745 16.94790079 -17.46484375 15.61328125 C-16.79582031 14.99839844 -16.12679688 14.38351563 -15.4375 13.75 C-14.87933594 13.22921875 -14.32117188 12.7084375 -13.74609375 12.171875 C-11.56799728 10.71006529 -9.55291602 10.49288973 -7 10 C-5.63979849 8.03241727 -5.63979849 8.03241727 -5 6 Z " fill="#B3BBC5" transform="translate(528,20)"/>
<path d="M0 0 C2.64 0 5.28 0 8 0 C9.32368621 6.25742574 9.32368621 6.25742574 7.9375 9.4375 C5.26105048 11.59592703 3.34099864 11.29697766 0 11 C-2.21538462 4.6 -2.21538462 4.6 -1.125 1.5625 C-0.75375 1.046875 -0.3825 0.53125 0 0 Z " fill="#E4E6E9" transform="translate(336,373)"/>
<path d="M0 0 C1.65 0 3.3 0 5 0 C4.5625 1.3125 4.125 2.625 3.6875 3.9375 C3.27757812 5.17306641 3.27757812 5.17306641 2.859375 6.43359375 C2.31677709 8.05398843 1.76579364 9.67162118 1.203125 11.28515625 C-0.58630422 16.46171935 -1.92107832 21.63077801 -3 27 C-3.33 27 -3.66 27 -4 27 C-5.9556408 17.9657898 -4.13461737 8.26923474 0 0 Z " fill="#B5B9C2" transform="translate(33,143)"/>
<path d="M0 0 C1.125 1.75 1.125 1.75 2 4 C-1.28748545 12.46615878 -10.08567708 19.97958018 -18 24 C-18.99 23.67 -19.98 23.34 -21 23 C-20.05898438 22.23816406 -19.11796875 21.47632813 -18.1484375 20.69140625 C-10.63572429 14.50138923 -4.41620577 8.83241155 0 0 Z " fill="#E4E9F1" transform="translate(895,391)"/>
<path d="M0 0 C2.31 0.33 4.62 0.66 7 1 C6.01 1.33 5.02 1.66 4 2 C3.31379969 3.32338632 2.65213539 4.65949948 2 6 C-2.24406619 11.73522459 -2.24406619 11.73522459 -5.23046875 12.78125 C-9.2205205 14.53709788 -11.89615369 17.3640038 -15 20.375 C-18.88445028 24.09344813 -22.73002496 27.71664798 -27 31 C-27.66 30.67 -28.32 30.34 -29 30 C-22.92833096 24.40394503 -16.85447741 18.82440935 -10.60546875 13.42578125 C-9.28903648 12.2566869 -8.03978872 11.01235412 -6.8125 9.75 C-5 8 -5 8 -2.375 6.5 C0.19144725 4.87908595 0.94089963 3.7921737 2 1 C1.34 0.67 0.68 0.34 0 0 Z " fill="#888F9B" transform="translate(524,18)"/>
<path d="M0 0 C0 4.41077584 -1.71233883 6.68391364 -4.76953125 9.80859375 C-8.61337275 13.34375199 -11.78312996 15.82620424 -17 17 C-13.72029488 9.52493605 -6.62426197 4.41617465 0 0 Z " fill="#A6ACB4" transform="translate(63,109)"/>
<path d="M0 0 C9.9994351 2.30756195 18.56138386 11.42945323 25 19 C26.28515625 21.8046875 26.28515625 21.8046875 27 24 C22.91889144 21.9042956 21.20098821 19.98274056 19 16 C18.34 15.67 17.68 15.34 17 15 C17 14.34 17 13.68 17 13 C16.071875 12.5978125 16.071875 12.5978125 15.125 12.1875 C13 11 13 11 11 8 C9.15407851 6.8543922 9.15407851 6.8543922 7.0625 5.9375 C4.50508127 4.74722474 2.3700592 3.58003947 0 2 C0 1.34 0 0.68 0 0 Z " fill="#D9DDE4" transform="translate(869,111)"/>
<path d="M0 0 C3.125 0.25 3.125 0.25 5 1.4375 C6.47281139 3.81036279 6.34723194 5.50913944 6.125 8.25 C4.4375 9.375 4.4375 9.375 2.125 10.25 C-0.625 9.375 -0.625 9.375 -2.875 8.25 C-1.225 5.94 0.425 3.63 2.125 1.25 C-0.50401288 2.77206009 -2.71865964 4.09365964 -4.875 6.25 C-3.81271234 0.3315402 -3.81271234 0.3315402 0 0 Z " fill="#E6E8EB" transform="translate(626.875,364.75)"/>
<path d="M0 0 C1.55136786 2.46393719 2.03039129 3.68089146 1.75 6.625 C1 9 1 9 -1 11 C-4.125 11.125 -4.125 11.125 -7 11 C-7 9.68 -7 8.36 -7 7 C-5.05874656 5.26526288 -3.05727132 3.5954349 -1 2 C-0.67 1.34 -0.34 0.68 0 0 Z " fill="#E2E4E7" transform="translate(623,373)"/>
<path d="M0 0 C0.99 0 1.98 0 3 0 C3.87890625 6.15234375 3.87890625 6.15234375 4 8 C3.67 8.33 3.34 8.66 3 9 C2.91368126 10.34267413 2.89293527 11.68974322 2.90234375 13.03515625 C2.90556641 13.84404297 2.90878906 14.65292969 2.91210938 15.48632812 C2.92048828 16.33646484 2.92886719 17.18660156 2.9375 18.0625 C2.94201172 18.91650391 2.94652344 19.77050781 2.95117188 20.65039062 C2.96299627 22.76695663 2.98093231 24.88348685 3 27 C2.67 27 2.34 27 2 27 C0.46859805 17.87995448 -0.27675737 9.25599658 0 0 Z " fill="#CAD1DA" transform="translate(529,21)"/>
<path d="M0 0 C0 3.35736563 -0.69208631 4.63906557 -2.25 7.5625 C-4.8485965 12.5894146 -6.98722842 17.71506903 -9 23 C-9.33 23 -9.66 23 -10 23 C-10.5164842 15.89834226 -9.26345433 9.99393684 -4.65625 4.35546875 C-3.49164473 3.18070704 -2.25117433 2.08209672 -1 1 C-0.67 0.67 -0.34 0.34 0 0 Z " fill="#DADDE4" transform="translate(45,133)"/>
<path d="M0 0 C0.66 0.33 1.32 0.66 2 1 C1.01 1.845625 0.02 2.69125 -1 3.5625 C-3.60320707 5.79084525 -6.1830497 8.04255221 -8.75 10.3125 C-13.7213882 14.67714397 -18.86164894 18.83453526 -24 23 C-24.66 22.67 -25.32 22.34 -26 22 C-17.44161073 14.52729034 -8.85340593 7.12321849 0 0 Z " fill="#CDD3DB" transform="translate(492,52)"/>
<path d="M0 0 C-0.56536994 3.27914568 -1.3703012 4.93380808 -4 7 C-6.93981024 8.39640986 -8.72236256 9 -12 9 C-9.12236832 3.54764525 -6.42887518 0 0 0 Z " fill="#717C8A" transform="translate(526,19)"/>
<path d="M0 0 C2.375 1.3125 2.375 1.3125 4.375 3.3125 C4.5 5.9375 4.5 5.9375 4.375 8.3125 C2.395 9.3025 2.395 9.3025 0.375 10.3125 C0.705 8.3325 1.035 6.3525 1.375 4.3125 C-0.275 5.9625 -1.925 7.6125 -3.625 9.3125 C-3.625 5.40411134 -2.11932124 4.19655893 0.375 1.3125 C-2.88960973 3.11662643 -4.51429795 4.14644693 -6.625 7.3125 C-6.875 5 -6.875 5 -6.625 2.3125 C-4.3097256 -0.34577802 -3.46337735 -0.90707502 0 0 Z " fill="#E3E5E9" transform="translate(348.625,364.6875)"/>
<path d="M0 0 C2.06309376 0.11478413 4.12548354 0.24226198 6.1875 0.375 C7.33605469 0.44460937 8.48460937 0.51421875 9.66796875 0.5859375 C12.79959117 0.97509574 15.15285809 1.6809851 18 3 C18 3.66 18 4.32 18 5 C20.475 5.495 20.475 5.495 23 6 C21.4375 6.6875 21.4375 6.6875 19 7 C17.39238846 6.33016186 15.78807309 5.6493695 14.21484375 4.90234375 C9.6586781 3.04612811 4.78302739 2.10740043 0 1 C0 0.67 0 0.34 0 0 Z " fill="#D5DAE2" transform="translate(846,104)"/>
<path d="M0 0 C0.66 0 1.32 0 2 0 C2 0.66 2 1.32 2 2 C2.99 2.33 3.98 2.66 5 3 C6.203125 5.14453125 6.203125 5.14453125 7.25 7.8125 C7.60578125 8.68519531 7.9615625 9.55789062 8.328125 10.45703125 C9.03604136 13.13641236 8.9337741 14.43212123 8 17 C7.67 15.02 7.34 13.04 7 11 C6.34 11 5.68 11 5 11 C4.16151196 9.54462432 3.32936066 8.08559627 2.5 6.625 C1.80390625 5.40683594 1.80390625 5.40683594 1.09375 4.1640625 C0 2 0 2 0 0 Z " fill="#CCD0D7" transform="translate(896,135)"/>
<path d="M0 0 C2.96052484 3.36423277 3.92289822 6.69159287 5 11 C4.01 11.66 3.02 12.32 2 13 C-0.6224715 10.3775285 -0.64217954 8.64976873 -1 5 C-0.5625 2.125 -0.5625 2.125 0 0 Z " fill="#B4B7C2" transform="translate(905,141)"/>
<path d="M0 0 C0.33 0.66 0.66 1.32 1 2 C1.66 2 2.32 2 3 2 C3 2.99 3 3.98 3 5 C3.66 5 4.32 5 5 5 C5 5.66 5 6.32 5 7 C6.32 7.66 7.64 8.32 9 9 C8.67 9.66 8.34 10.32 8 11 C3.70048197 9.40758592 1.60328053 6.64459275 -1 3 C-0.67 2.01 -0.34 1.02 0 0 Z " fill="#E0E6EF" transform="translate(47,397)"/>
<path d="M0 0 C1.32 0 2.64 0 4 0 C5 3 5 3 5 6 C6.65 6.33 8.3 6.66 10 7 C9.67 7.99 9.34 8.98 9 10 C4.71095765 8.4114658 2.67654474 5.56872632 0 2 C0 1.34 0 0.68 0 0 Z " fill="#E7E9EB" transform="translate(355,351)"/>
<path d="M0 0 C1.125 1.75 1.125 1.75 2 4 C1.03284133 6.65968633 -0.41948242 8.62922362 -2 11 C-2.99 11 -3.98 11 -5 11 C-4.32902328 6.80639551 -2.1441606 3.59665648 0 0 Z " fill="#DCE2EA" transform="translate(895,391)"/>
<path d="M0 0 C2.31 0.33 4.62 0.66 7 1 C6.01 1.33 5.02 1.66 4 2 C3.31379969 3.32338632 2.65213539 4.65949948 2 6 C0.40283189 8.06722076 -1.29136328 10.02157854 -3 12 C-3.66 11.67 -4.32 11.34 -5 11 C-4.57847656 10.52949219 -4.15695312 10.05898438 -3.72265625 9.57421875 C-2.90087891 8.64029297 -2.90087891 8.64029297 -2.0625 7.6875 C-1.51722656 7.07261719 -0.97195313 6.45773438 -0.41015625 5.82421875 C1.20081559 3.94758042 1.20081559 3.94758042 2 1 C1.34 0.67 0.68 0.34 0 0 Z " fill="#98A0AE" transform="translate(524,18)"/>
<path d="M0 0 C1.34313399 0.64669414 2.67391178 1.31903578 4 2 C4.886875 2.433125 5.77375 2.86625 6.6875 3.3125 C9 5 9 5 9.8125 7.6875 C9.874375 8.450625 9.93625 9.21375 10 10 C8.35 9.67 6.7 9.34 5 9 C4.938125 8.4225 4.87625 7.845 4.8125 7.25 C3.67972699 4.11309013 1.65802405 2.90832496 -1 1 C-0.67 0.67 -0.34 0.34 0 0 Z " fill="#E5E7E9" transform="translate(633,357)"/>
<path d="M0 0 C2.97 1.98 2.97 1.98 6 4 C5.67 4.99 5.34 5.98 5 7 C3.02 6.34 1.04 5.68 -1 5 C-0.67 3.35 -0.34 1.7 0 0 Z " fill="#A6ADB4" transform="translate(879,111)"/>
<path d="M0 0 C2.5 0.5 2.5 0.5 5.5 4.5 C1.87 4.5 -1.76 4.5 -5.5 4.5 C-2.5 0.5 -2.5 0.5 0 0 Z " fill="#F9F9FB" transform="translate(229.5,423.5)"/>
<path d="M0 0 C0.99 0.33 1.98 0.66 3 1 C-0.3 3.64 -3.6 6.28 -7 9 C-7.66 8.67 -8.32 8.34 -9 8 C-6.03 5.36 -3.06 2.72 0 0 Z " fill="#C7CED6" transform="translate(503,43)"/>
<path d="M0 0 C-0.33 1.65 -0.66 3.3 -1 5 C-2.32 5.33 -3.64 5.66 -5 6 C-5 3 -5 3 -3.625 1.3125 C-2 0 -2 0 0 0 Z " fill="#E9EBEE" transform="translate(623,377)"/>
<path d="M0 0 C0 3 0 3 -1.53125 4.60546875 C-2.1809375 5.12753906 -2.830625 5.64960937 -3.5 6.1875 C-4.1496875 6.71730469 -4.799375 7.24710938 -5.46875 7.79296875 C-5.9740625 8.19128906 -6.479375 8.58960938 -7 9 C-7.66 8.67 -8.32 8.34 -9 8 C-6.03 5.36 -3.06 2.72 0 0 Z " fill="#7D8693" transform="translate(493,44)"/>
<path d="M0 0 C0.58265625 0.21527344 1.1653125 0.43054688 1.765625 0.65234375 C0.31298462 1.51615665 -1.1466913 2.36814829 -2.609375 3.21484375 C-3.82753906 3.92833984 -3.82753906 3.92833984 -5.0703125 4.65625 C-5.78445312 4.98496094 -6.49859375 5.31367187 -7.234375 5.65234375 C-7.894375 5.32234375 -8.554375 4.99234375 -9.234375 4.65234375 C-8.16330383 3.78285058 -7.07691556 2.9322017 -5.984375 2.08984375 C-5.38109375 1.61417969 -4.7778125 1.13851562 -4.15625 0.6484375 C-2.234375 -0.34765625 -2.234375 -0.34765625 0 0 Z " fill="#CACFD7" transform="translate(69.234375,111.34765625)"/>
<path d="M0 0 C0 0.99 0 1.98 0 3 C-1.75 4.60546875 -1.75 4.60546875 -4 6.1875 C-4.7425 6.71730469 -5.485 7.24710938 -6.25 7.79296875 C-6.8275 8.19128906 -7.405 8.58960938 -8 9 C-6.1144852 4.71640327 -3.64034299 2.84896408 0 0 Z " fill="#666D88" transform="translate(514,26)"/>
<path d="M0 0 C3.36179774 1.44077046 5.59156268 3.24750021 8 6 C8 6.66 8 7.32 8 8 C7.01 8.33 6.02 8.66 5 9 C4.731875 8.2575 4.46375 7.515 4.1875 6.75 C3.05770579 4.13363446 1.79106798 2.19812889 0 0 Z " fill="#E5E7E9" transform="translate(630,360)"/>
<path d="M0 0 C3.36179774 1.44077046 5.59156268 3.24750021 8 6 C8 6.66 8 7.32 8 8 C7.01 8.33 6.02 8.66 5 9 C4.731875 8.2575 4.46375 7.515 4.1875 6.75 C3.05770579 4.13363446 1.79106798 2.19812889 0 0 Z " fill="#E5E7E9" transform="translate(350,360)"/>
<path d="M0 0 C0.99 0 1.98 0 3 0 C3 0.66 3 1.32 3 2 C5.31 2.33 7.62 2.66 10 3 C10 3.33 10 3.66 10 4 C7.03 3.67 4.06 3.34 1 3 C0.67 2.01 0.34 1.02 0 0 Z " fill="#C0C6CF" transform="translate(555,98)"/>
<path d="M0 0 C1.32 0 2.64 0 4 0 C3.60196439 2.88575819 3.20990931 3.82189513 0.9375 5.75 C0.298125 6.1625 -0.34125 6.575 -1 7 C-0.7525 6.1028125 -0.7525 6.1028125 -0.5 5.1875 C0.1114124 2.88655664 0.1114124 2.88655664 0 0 Z " fill="#868D99" transform="translate(522,19)"/>
</svg>
